<svg xmlns="http://www.w3.org/2000/svg" viewBox="0 0 512 512">
  <rect width="512" height="512" rx="120" fill="#000" />
  <g transform="translate(172 70)" fill="#fff">
    <path d="M84 0c-22 32-36 81-39 136-3 54 5 109 24 152h30c19-43 27-98 24-152C119 81 106 32 84 0Z" />
    <path d="M36 214c-26 20-44 53-46 108 26-20 58-32 94-36-14-21-29-46-48-72Z" />
    <path d="M132 214c26 20 44 53 46 108-26-20-58-32-94-36 14-21 29-46 48-72Z" />
    <path d="M84 308c-15 22-28 42-40 74 27-10 53-10 80 0-12-32-25-52-40-74Z" />
    <path d="M84 84c-21 0-38 17-38 38s17 38 38 38 38-17 38-38-17-38-38-38Z" />
    <path d="M66 122 84 112l18 10-18 26Z" />
  </g>
</svg>
