<svg xmlns="http://www.w3.org/2000/svg" viewBox="0 0 512 512" width="512" height="512">
  <defs>
    <radialGradient id="bg" cx="50%" cy="40%" r="75%">
      <stop offset="0" stop-color="#1d2736" />
      <stop offset="1" stop-color="#060b12" />
    </radialGradient>
    <linearGradient id="rocketBody" x1="0" x2="0" y1="0" y2="1">
      <stop offset="0" stop-color="#ffffff" />
      <stop offset="1" stop-color="#dfe3ff" />
    </linearGradient>
    <linearGradient id="rocketNose" x1="0" x2="0" y1="0" y2="1">
      <stop offset="0" stop-color="#8c70ff" />
      <stop offset="1" stop-color="#6235ff" />
    </linearGradient>
    <linearGradient id="rocketWing" x1="0" x2="1" y1="0" y2="1">
      <stop offset="0" stop-color="#7a5cff" />
      <stop offset="1" stop-color="#4720ff" />
    </linearGradient>
    <linearGradient id="flame" x1="0" x2="0" y1="0" y2="1">
      <stop offset="0" stop-color="#ff8bd8" />
      <stop offset="1" stop-color="#8034ff" />
    </linearGradient>
  </defs>
  <rect width="512" height="512" rx="120" fill="url(#bg)" />
  <g transform="translate(172 70)">
    <path d="M84 0c-22 32-36 81-39 136-3 54 5 109 24 152h30c19-43 27-98 24-152C119 81 106 32 84 0Z" fill="url(#rocketBody)" />
    <path d="M84 0c-17 24-29 63-31 105 20 6 44 6 62 0C113 63 101 24 84 0Z" fill="url(#rocketNose)" />
    <path d="M36 214c-26 20-44 53-46 108 26-20 58-32 94-36-14-21-29-46-48-72Z" fill="url(#rocketWing)" />
    <path d="M132 214c26 20 44 53 46 108-26-20-58-32-94-36 14-21 29-46 48-72Z" fill="url(#rocketWing)" />
    <path d="M84 308c-15 22-28 42-40 74 27-10 53-10 80 0-12-32-25-52-40-74Z" fill="url(#flame)" />
    <path d="M84 84c-21 0-38 17-38 38s17 38 38 38 38-17 38-38-17-38-38-38Zm-18 38 18-10 18 10-18 26-18-26Z" fill="#5a4dff" />
  </g>
</svg>
